<mxfile host="app.diagrams.net" agent="Mozilla/5.0 (Windows NT 10.0; Win64; x64) AppleWebKit/537.36 (KHTML, like Gecko) Chrome/128.0.0.0 Safari/537.36 OPR/114.0.0.0" version="24.8.2">
  <diagram name="Page-1" id="c7488fd3-1785-93aa-aadb-54a6760d102a">
    <mxGraphModel dx="730" dy="402" grid="1" gridSize="10" guides="1" tooltips="1" connect="1" arrows="1" fold="1" page="1" pageScale="1" pageWidth="1100" pageHeight="850" background="none" math="0" shadow="0">
      <root>
        <mxCell id="0" />
        <mxCell id="1" parent="0" />
        <mxCell id="2b4e8129b02d487f-1" value="Fluxograma de Desenvolvimento de Projeto" style="swimlane;html=1;childLayout=stackLayout;horizontal=1;startSize=20;horizontalStack=0;rounded=0;shadow=0;labelBackgroundColor=none;strokeWidth=1;fontFamily=Verdana;fontSize=8;align=center;gradientColor=none;" parent="1" vertex="1">
          <mxGeometry x="235" y="115" width="630" height="470" as="geometry">
            <mxRectangle x="235" y="115" width="220" height="20" as="alternateBounds" />
          </mxGeometry>
        </mxCell>
        <mxCell id="2b4e8129b02d487f-2" value="Requisitos" style="swimlane;html=1;startSize=20;horizontal=0;" parent="2b4e8129b02d487f-1" vertex="1">
          <mxGeometry y="20" width="630" height="150" as="geometry">
            <mxRectangle y="20" width="630" height="30" as="alternateBounds" />
          </mxGeometry>
        </mxCell>
        <mxCell id="9vJBuJwD2FiN41_QSTd1-1" value="" style="edgeStyle=orthogonalEdgeStyle;rounded=0;orthogonalLoop=1;jettySize=auto;html=1;" edge="1" parent="2b4e8129b02d487f-2" source="2b4e8129b02d487f-6" target="2b4e8129b02d487f-7">
          <mxGeometry relative="1" as="geometry" />
        </mxCell>
        <mxCell id="2b4e8129b02d487f-6" value="Reunião inicial com o cliente" style="rounded=1&#xa;;whiteSpace=wrap;html=1;shadow=0;labelBackgroundColor=none;strokeWidth=1;fontFamily=Verdana;fontSize=8;align=center;fillStyle=auto;" parent="2b4e8129b02d487f-2" vertex="1">
          <mxGeometry x="90" y="50" width="100" height="43.5" as="geometry" />
        </mxCell>
        <mxCell id="9vJBuJwD2FiN41_QSTd1-3" value="" style="edgeStyle=orthogonalEdgeStyle;rounded=0;orthogonalLoop=1;jettySize=auto;html=1;" edge="1" parent="2b4e8129b02d487f-2" source="2b4e8129b02d487f-7" target="9vJBuJwD2FiN41_QSTd1-2">
          <mxGeometry relative="1" as="geometry" />
        </mxCell>
        <mxCell id="2b4e8129b02d487f-7" value="Levantamento de requisitos pelo analista de sistema" style="rounded=0&#xa;;whiteSpace=wrap;html=1;shadow=0;labelBackgroundColor=none;strokeWidth=1;fontFamily=Verdana;fontSize=8;align=center;" parent="2b4e8129b02d487f-2" vertex="1">
          <mxGeometry x="230" y="50" width="70" height="43.5" as="geometry" />
        </mxCell>
        <mxCell id="9vJBuJwD2FiN41_QSTd1-6" value="" style="edgeStyle=orthogonalEdgeStyle;rounded=0;orthogonalLoop=1;jettySize=auto;html=1;exitX=0.5;exitY=0;exitDx=0;exitDy=0;entryX=0.5;entryY=0;entryDx=0;entryDy=0;" edge="1" parent="2b4e8129b02d487f-2" source="9vJBuJwD2FiN41_QSTd1-2" target="2b4e8129b02d487f-6">
          <mxGeometry relative="1" as="geometry">
            <mxPoint x="360" y="20" as="sourcePoint" />
            <mxPoint x="150" y="40" as="targetPoint" />
            <Array as="points">
              <mxPoint x="365" y="20" />
              <mxPoint x="140" y="20" />
            </Array>
          </mxGeometry>
        </mxCell>
        <mxCell id="9vJBuJwD2FiN41_QSTd1-14" value="" style="edgeStyle=orthogonalEdgeStyle;rounded=0;orthogonalLoop=1;jettySize=auto;html=1;" edge="1" parent="2b4e8129b02d487f-2" source="9vJBuJwD2FiN41_QSTd1-2" target="9vJBuJwD2FiN41_QSTd1-13">
          <mxGeometry relative="1" as="geometry" />
        </mxCell>
        <mxCell id="9vJBuJwD2FiN41_QSTd1-2" value="&lt;font style=&quot;font-size: 8px;&quot;&gt;Requisitos Validados?&lt;/font&gt;" style="rhombus;whiteSpace=wrap;html=1;" vertex="1" parent="2b4e8129b02d487f-2">
          <mxGeometry x="330" y="41.31" width="70" height="60.88" as="geometry" />
        </mxCell>
        <mxCell id="9vJBuJwD2FiN41_QSTd1-16" value="" style="edgeStyle=orthogonalEdgeStyle;rounded=0;orthogonalLoop=1;jettySize=auto;html=1;exitX=0.5;exitY=0;exitDx=0;exitDy=0;entryX=0.5;entryY=0;entryDx=0;entryDy=0;" edge="1" parent="2b4e8129b02d487f-2" source="9vJBuJwD2FiN41_QSTd1-13" target="2b4e8129b02d487f-7">
          <mxGeometry relative="1" as="geometry">
            <mxPoint x="520" y="20" as="sourcePoint" />
            <mxPoint x="260" y="10" as="targetPoint" />
            <Array as="points">
              <mxPoint x="525" y="10" />
              <mxPoint x="265" y="10" />
            </Array>
          </mxGeometry>
        </mxCell>
        <mxCell id="9vJBuJwD2FiN41_QSTd1-13" value="&lt;font style=&quot;font-size: 8px;&quot;&gt;Tecnologias Aprovadas pela Gerente de projeto&lt;/font&gt;&lt;span style=&quot;font-size: 8px; background-color: initial;&quot;&gt;?&lt;/span&gt;" style="rhombus;whiteSpace=wrap;html=1;" vertex="1" parent="2b4e8129b02d487f-2">
          <mxGeometry x="490" y="41.31" width="70" height="60.88" as="geometry" />
        </mxCell>
        <mxCell id="9vJBuJwD2FiN41_QSTd1-10" value="&lt;font style=&quot;font-size: 8px;&quot;&gt;NÃO&lt;/font&gt;" style="text;html=1;align=center;verticalAlign=middle;resizable=0;points=[];autosize=1;strokeColor=none;fillColor=none;" vertex="1" parent="2b4e8129b02d487f-2">
          <mxGeometry x="330" y="11.310000000000002" width="40" height="30" as="geometry" />
        </mxCell>
        <mxCell id="9vJBuJwD2FiN41_QSTd1-39" value="&lt;font style=&quot;font-size: 8px;&quot;&gt;NÃO&lt;/font&gt;" style="text;html=1;align=center;verticalAlign=middle;resizable=0;points=[];autosize=1;strokeColor=none;fillColor=none;" vertex="1" parent="2b4e8129b02d487f-2">
          <mxGeometry x="490" y="11.310000000000002" width="40" height="30" as="geometry" />
        </mxCell>
        <mxCell id="9vJBuJwD2FiN41_QSTd1-40" value="&lt;span style=&quot;font-size: 8px;&quot;&gt;SIM&lt;/span&gt;" style="text;html=1;align=center;verticalAlign=middle;resizable=0;points=[];autosize=1;strokeColor=none;fillColor=none;" vertex="1" parent="2b4e8129b02d487f-2">
          <mxGeometry x="490" y="93.5" width="40" height="30" as="geometry" />
        </mxCell>
        <mxCell id="9vJBuJwD2FiN41_QSTd1-105" value="&lt;font style=&quot;font-size: 8px;&quot;&gt;SIM&lt;/font&gt;" style="text;html=1;align=center;verticalAlign=middle;resizable=0;points=[];autosize=1;strokeColor=none;fillColor=none;" vertex="1" parent="2b4e8129b02d487f-2">
          <mxGeometry x="390" y="63.5" width="40" height="30" as="geometry" />
        </mxCell>
        <mxCell id="2b4e8129b02d487f-3" value="Desenvolvimento" style="swimlane;html=1;startSize=20;horizontal=0;" parent="2b4e8129b02d487f-1" vertex="1">
          <mxGeometry y="170" width="630" height="150" as="geometry">
            <mxRectangle y="170" width="630" height="30" as="alternateBounds" />
          </mxGeometry>
        </mxCell>
        <mxCell id="9vJBuJwD2FiN41_QSTd1-41" value="&lt;font style=&quot;font-size: 8px;&quot;&gt;SIM&lt;/font&gt;" style="text;html=1;align=center;verticalAlign=middle;resizable=0;points=[];autosize=1;strokeColor=none;fillColor=none;" vertex="1" parent="2b4e8129b02d487f-3">
          <mxGeometry x="350" width="40" height="30" as="geometry" />
        </mxCell>
        <mxCell id="9vJBuJwD2FiN41_QSTd1-26" value="" style="edgeStyle=orthogonalEdgeStyle;rounded=0;orthogonalLoop=1;jettySize=auto;html=1;" edge="1" parent="2b4e8129b02d487f-3" source="2b4e8129b02d487f-12" target="9vJBuJwD2FiN41_QSTd1-25">
          <mxGeometry relative="1" as="geometry" />
        </mxCell>
        <mxCell id="2b4e8129b02d487f-12" value="Codificação dos módulos pela equipe de desenvolvimento" style="rounded=0;whiteSpace=wrap;html=1;shadow=0;labelBackgroundColor=none;strokeWidth=1;fontFamily=Verdana;fontSize=8;align=center;" parent="2b4e8129b02d487f-3" vertex="1">
          <mxGeometry x="80" y="40" width="70" height="47" as="geometry" />
        </mxCell>
        <mxCell id="9vJBuJwD2FiN41_QSTd1-29" value="" style="edgeStyle=orthogonalEdgeStyle;rounded=0;orthogonalLoop=1;jettySize=auto;html=1;" edge="1" parent="2b4e8129b02d487f-3" source="9vJBuJwD2FiN41_QSTd1-25" target="9vJBuJwD2FiN41_QSTd1-28">
          <mxGeometry relative="1" as="geometry">
            <Array as="points">
              <mxPoint x="310" y="64" />
              <mxPoint x="310" y="64" />
            </Array>
          </mxGeometry>
        </mxCell>
        <mxCell id="9vJBuJwD2FiN41_QSTd1-25" value="Versionamento do código" style="rounded=0;whiteSpace=wrap;html=1;shadow=0;labelBackgroundColor=none;strokeWidth=1;fontFamily=Verdana;fontSize=8;align=center;" vertex="1" parent="2b4e8129b02d487f-3">
          <mxGeometry x="200" y="40" width="70" height="47" as="geometry" />
        </mxCell>
        <mxCell id="9vJBuJwD2FiN41_QSTd1-28" value="&lt;font style=&quot;font-size: 8px;&quot;&gt;Necessitou de revisão?&lt;/font&gt;" style="rhombus;whiteSpace=wrap;html=1;" vertex="1" parent="2b4e8129b02d487f-3">
          <mxGeometry x="320" y="30" width="70" height="68.94" as="geometry" />
        </mxCell>
        <mxCell id="9vJBuJwD2FiN41_QSTd1-30" value="" style="edgeStyle=orthogonalEdgeStyle;rounded=0;orthogonalLoop=1;jettySize=auto;html=1;exitX=0.5;exitY=0;exitDx=0;exitDy=0;entryX=0;entryY=0.5;entryDx=0;entryDy=0;" edge="1" parent="2b4e8129b02d487f-3" source="9vJBuJwD2FiN41_QSTd1-28">
          <mxGeometry relative="1" as="geometry">
            <mxPoint x="450" y="25" as="targetPoint" />
            <Array as="points">
              <mxPoint x="355" y="25" />
            </Array>
          </mxGeometry>
        </mxCell>
        <mxCell id="9vJBuJwD2FiN41_QSTd1-57" value="" style="edgeStyle=orthogonalEdgeStyle;rounded=0;orthogonalLoop=1;jettySize=auto;html=1;entryX=1;entryY=0.5;entryDx=0;entryDy=0;exitX=0.5;exitY=1;exitDx=0;exitDy=0;" edge="1" parent="2b4e8129b02d487f-3" source="9vJBuJwD2FiN41_QSTd1-43" target="9vJBuJwD2FiN41_QSTd1-28">
          <mxGeometry relative="1" as="geometry">
            <mxPoint x="490" y="64" as="sourcePoint" />
            <mxPoint x="485" y="135" as="targetPoint" />
          </mxGeometry>
        </mxCell>
        <mxCell id="9vJBuJwD2FiN41_QSTd1-43" value="&lt;font style=&quot;font-size: 8px;&quot;&gt;Correção de Bugs&lt;/font&gt;" style="rounded=0;whiteSpace=wrap;html=1;" vertex="1" parent="2b4e8129b02d487f-3">
          <mxGeometry x="450" y="10.000000000000028" width="70" height="30" as="geometry" />
        </mxCell>
        <mxCell id="9vJBuJwD2FiN41_QSTd1-44" value="&lt;span style=&quot;font-size: 8px;&quot;&gt;NÃO&lt;/span&gt;" style="text;html=1;align=center;verticalAlign=middle;resizable=0;points=[];autosize=1;strokeColor=none;fillColor=none;" vertex="1" parent="2b4e8129b02d487f-3">
          <mxGeometry x="320" y="87" width="40" height="30" as="geometry" />
        </mxCell>
        <mxCell id="2b4e8129b02d487f-4" value="Testes" style="swimlane;html=1;startSize=20;horizontal=0;" parent="2b4e8129b02d487f-1" vertex="1">
          <mxGeometry y="320" width="630" height="150" as="geometry">
            <mxRectangle y="320" width="630" height="30" as="alternateBounds" />
          </mxGeometry>
        </mxCell>
        <mxCell id="9vJBuJwD2FiN41_QSTd1-60" value="" style="edgeStyle=orthogonalEdgeStyle;rounded=0;orthogonalLoop=1;jettySize=auto;html=1;" edge="1" parent="2b4e8129b02d487f-4" source="2b4e8129b02d487f-14" target="9vJBuJwD2FiN41_QSTd1-58">
          <mxGeometry relative="1" as="geometry">
            <Array as="points">
              <mxPoint x="110" y="75" />
              <mxPoint x="110" y="75" />
            </Array>
          </mxGeometry>
        </mxCell>
        <mxCell id="2b4e8129b02d487f-14" value="Realização de Testes unitários pela equipe de desenvolvimento" style="rounded=0;whiteSpace=wrap;html=1;shadow=0;labelBackgroundColor=none;strokeWidth=1;fontFamily=Verdana;fontSize=8;align=center;" parent="2b4e8129b02d487f-4" vertex="1">
          <mxGeometry x="30" y="57" width="70" height="43" as="geometry" />
        </mxCell>
        <mxCell id="9vJBuJwD2FiN41_QSTd1-74" value="" style="edgeStyle=orthogonalEdgeStyle;rounded=0;orthogonalLoop=1;jettySize=auto;html=1;" edge="1" parent="2b4e8129b02d487f-4" source="9vJBuJwD2FiN41_QSTd1-58" target="9vJBuJwD2FiN41_QSTd1-63">
          <mxGeometry relative="1" as="geometry" />
        </mxCell>
        <mxCell id="9vJBuJwD2FiN41_QSTd1-58" value="&lt;span style=&quot;font-size: 8px;&quot;&gt;Erro no teste?&lt;/span&gt;" style="rhombus;whiteSpace=wrap;html=1;" vertex="1" parent="2b4e8129b02d487f-4">
          <mxGeometry x="140" y="40.52999999999997" width="70" height="68.94" as="geometry" />
        </mxCell>
        <mxCell id="9vJBuJwD2FiN41_QSTd1-72" value="" style="edgeStyle=orthogonalEdgeStyle;rounded=0;orthogonalLoop=1;jettySize=auto;html=1;" edge="1" parent="2b4e8129b02d487f-4" source="9vJBuJwD2FiN41_QSTd1-63" target="9vJBuJwD2FiN41_QSTd1-67">
          <mxGeometry relative="1" as="geometry" />
        </mxCell>
        <mxCell id="9vJBuJwD2FiN41_QSTd1-63" value="Realização dos testes de integração pelo revisor de código" style="rounded=0;whiteSpace=wrap;html=1;shadow=0;labelBackgroundColor=none;strokeWidth=1;fontFamily=Verdana;fontSize=8;align=center;" vertex="1" parent="2b4e8129b02d487f-4">
          <mxGeometry x="240" y="53.5" width="80" height="43" as="geometry" />
        </mxCell>
        <mxCell id="9vJBuJwD2FiN41_QSTd1-84" value="" style="edgeStyle=orthogonalEdgeStyle;rounded=0;orthogonalLoop=1;jettySize=auto;html=1;" edge="1" parent="2b4e8129b02d487f-4" source="9vJBuJwD2FiN41_QSTd1-67" target="9vJBuJwD2FiN41_QSTd1-80">
          <mxGeometry relative="1" as="geometry" />
        </mxCell>
        <mxCell id="9vJBuJwD2FiN41_QSTd1-67" value="&lt;span style=&quot;font-size: 8px;&quot;&gt;Erro no teste?&lt;/span&gt;" style="rhombus;whiteSpace=wrap;html=1;" vertex="1" parent="2b4e8129b02d487f-4">
          <mxGeometry x="340" y="40" width="70" height="69.47" as="geometry" />
        </mxCell>
        <mxCell id="9vJBuJwD2FiN41_QSTd1-76" value="" style="endArrow=none;html=1;rounded=0;exitX=0.5;exitY=0;exitDx=0;exitDy=0;" edge="1" parent="2b4e8129b02d487f-4" source="9vJBuJwD2FiN41_QSTd1-67">
          <mxGeometry width="50" height="50" relative="1" as="geometry">
            <mxPoint x="384.71" y="40" as="sourcePoint" />
            <mxPoint x="370" y="30" as="targetPoint" />
            <Array as="points">
              <mxPoint x="375" y="30" />
            </Array>
          </mxGeometry>
        </mxCell>
        <mxCell id="9vJBuJwD2FiN41_QSTd1-129" value="" style="edgeStyle=orthogonalEdgeStyle;rounded=0;orthogonalLoop=1;jettySize=auto;html=1;entryX=0;entryY=0.5;entryDx=0;entryDy=0;" edge="1" parent="2b4e8129b02d487f-4" source="9vJBuJwD2FiN41_QSTd1-80" target="9vJBuJwD2FiN41_QSTd1-85">
          <mxGeometry relative="1" as="geometry" />
        </mxCell>
        <mxCell id="9vJBuJwD2FiN41_QSTd1-80" value="Realização do teste de integração do gerente de projeto junto ao cliente" style="rounded=0;whiteSpace=wrap;html=1;shadow=0;labelBackgroundColor=none;strokeWidth=1;fontFamily=Verdana;fontSize=8;align=center;" vertex="1" parent="2b4e8129b02d487f-4">
          <mxGeometry x="430" y="53.24" width="90" height="43" as="geometry" />
        </mxCell>
        <mxCell id="9vJBuJwD2FiN41_QSTd1-75" value="" style="endArrow=none;html=1;rounded=0;" edge="1" parent="2b4e8129b02d487f-4">
          <mxGeometry width="50" height="50" relative="1" as="geometry">
            <mxPoint x="170" y="30" as="sourcePoint" />
            <mxPoint x="370" y="30" as="targetPoint" />
            <Array as="points">
              <mxPoint x="330" y="30" />
            </Array>
          </mxGeometry>
        </mxCell>
        <mxCell id="9vJBuJwD2FiN41_QSTd1-77" value="" style="endArrow=none;html=1;rounded=0;" edge="1" parent="2b4e8129b02d487f-4">
          <mxGeometry width="50" height="50" relative="1" as="geometry">
            <mxPoint x="170" y="30" as="sourcePoint" />
            <mxPoint x="370" y="30" as="targetPoint" />
            <Array as="points">
              <mxPoint x="330" y="30" />
            </Array>
          </mxGeometry>
        </mxCell>
        <mxCell id="9vJBuJwD2FiN41_QSTd1-85" value="&lt;span style=&quot;font-size: 8px;&quot;&gt;Projeto aprovado?&lt;/span&gt;" style="rhombus;whiteSpace=wrap;html=1;" vertex="1" parent="2b4e8129b02d487f-4">
          <mxGeometry x="540" y="40.269999999999996" width="70" height="69.47" as="geometry" />
        </mxCell>
        <mxCell id="9vJBuJwD2FiN41_QSTd1-86" value="&lt;span style=&quot;font-size: 8px;&quot;&gt;NÃO&lt;/span&gt;" style="text;html=1;align=center;verticalAlign=middle;resizable=0;points=[];autosize=1;strokeColor=none;fillColor=none;" vertex="1" parent="2b4e8129b02d487f-4">
          <mxGeometry x="190" y="70" width="40" height="30" as="geometry" />
        </mxCell>
        <mxCell id="9vJBuJwD2FiN41_QSTd1-104" value="&lt;span style=&quot;font-size: 8px;&quot;&gt;NÃO&lt;/span&gt;" style="text;html=1;align=center;verticalAlign=middle;resizable=0;points=[];autosize=1;strokeColor=none;fillColor=none;" vertex="1" parent="2b4e8129b02d487f-4">
          <mxGeometry x="390" y="70" width="40" height="30" as="geometry" />
        </mxCell>
        <mxCell id="9vJBuJwD2FiN41_QSTd1-106" value="&lt;font style=&quot;font-size: 8px;&quot;&gt;SIM&lt;/font&gt;" style="text;html=1;align=center;verticalAlign=middle;resizable=0;points=[];autosize=1;strokeColor=none;fillColor=none;" vertex="1" parent="2b4e8129b02d487f-4">
          <mxGeometry x="540" y="100.00000000000001" width="40" height="30" as="geometry" />
        </mxCell>
        <mxCell id="9vJBuJwD2FiN41_QSTd1-124" value="&lt;font style=&quot;font-size: 8px;&quot;&gt;SIM&lt;/font&gt;" style="text;html=1;align=center;verticalAlign=middle;resizable=0;points=[];autosize=1;strokeColor=none;fillColor=none;" vertex="1" parent="2b4e8129b02d487f-4">
          <mxGeometry x="140" y="23.24000000000001" width="40" height="30" as="geometry" />
        </mxCell>
        <mxCell id="9vJBuJwD2FiN41_QSTd1-125" value="" style="endArrow=none;html=1;rounded=0;" edge="1" parent="2b4e8129b02d487f-4">
          <mxGeometry width="50" height="50" relative="1" as="geometry">
            <mxPoint x="370" y="30" as="sourcePoint" />
            <mxPoint x="570" y="30" as="targetPoint" />
            <Array as="points">
              <mxPoint x="460" y="30" />
            </Array>
          </mxGeometry>
        </mxCell>
        <mxCell id="9vJBuJwD2FiN41_QSTd1-126" value="" style="endArrow=none;html=1;rounded=0;exitX=0.5;exitY=0;exitDx=0;exitDy=0;" edge="1" parent="2b4e8129b02d487f-4" source="9vJBuJwD2FiN41_QSTd1-85">
          <mxGeometry width="50" height="50" relative="1" as="geometry">
            <mxPoint x="564.89" y="40" as="sourcePoint" />
            <mxPoint x="560" y="30" as="targetPoint" />
            <Array as="points">
              <mxPoint x="575" y="30" />
              <mxPoint x="565" y="30" />
            </Array>
          </mxGeometry>
        </mxCell>
        <mxCell id="9vJBuJwD2FiN41_QSTd1-127" value="&lt;span style=&quot;font-size: 8px;&quot;&gt;NÃO&lt;/span&gt;" style="text;html=1;align=center;verticalAlign=middle;resizable=0;points=[];autosize=1;strokeColor=none;fillColor=none;" vertex="1" parent="2b4e8129b02d487f-4">
          <mxGeometry x="540" y="23.24000000000001" width="40" height="30" as="geometry" />
        </mxCell>
        <mxCell id="9vJBuJwD2FiN41_QSTd1-150" value="&lt;font style=&quot;font-size: 8px;&quot;&gt;SIM&lt;/font&gt;" style="text;html=1;align=center;verticalAlign=middle;resizable=0;points=[];autosize=1;strokeColor=none;fillColor=none;" vertex="1" parent="2b4e8129b02d487f-4">
          <mxGeometry x="340" y="23.24000000000001" width="40" height="30" as="geometry" />
        </mxCell>
        <mxCell id="9vJBuJwD2FiN41_QSTd1-21" value="" style="edgeStyle=orthogonalEdgeStyle;rounded=0;orthogonalLoop=1;jettySize=auto;html=1;exitX=0.5;exitY=1;exitDx=0;exitDy=0;entryX=0.5;entryY=0;entryDx=0;entryDy=0;" edge="1" parent="2b4e8129b02d487f-1" source="9vJBuJwD2FiN41_QSTd1-13" target="2b4e8129b02d487f-12">
          <mxGeometry relative="1" as="geometry">
            <mxPoint x="510" y="250" as="sourcePoint" />
            <mxPoint x="490" y="140" as="targetPoint" />
            <Array as="points">
              <mxPoint x="525" y="140" />
              <mxPoint x="115" y="140" />
            </Array>
          </mxGeometry>
        </mxCell>
        <mxCell id="9vJBuJwD2FiN41_QSTd1-53" value="" style="edgeStyle=orthogonalEdgeStyle;rounded=0;orthogonalLoop=1;jettySize=auto;html=1;entryX=0.5;entryY=0;entryDx=0;entryDy=0;" edge="1" parent="2b4e8129b02d487f-1" source="9vJBuJwD2FiN41_QSTd1-28" target="2b4e8129b02d487f-14">
          <mxGeometry relative="1" as="geometry">
            <Array as="points">
              <mxPoint x="355" y="280" />
              <mxPoint x="65" y="280" />
            </Array>
          </mxGeometry>
        </mxCell>
        <mxCell id="9vJBuJwD2FiN41_QSTd1-59" value="" style="edgeStyle=orthogonalEdgeStyle;rounded=0;orthogonalLoop=1;jettySize=auto;html=1;entryX=0.5;entryY=1;entryDx=0;entryDy=0;exitX=0.5;exitY=0;exitDx=0;exitDy=0;" edge="1" parent="2b4e8129b02d487f-1" source="9vJBuJwD2FiN41_QSTd1-58" target="2b4e8129b02d487f-12">
          <mxGeometry relative="1" as="geometry">
            <mxPoint x="215" y="340" as="sourcePoint" />
            <Array as="points">
              <mxPoint x="175" y="350" />
              <mxPoint x="115" y="350" />
            </Array>
          </mxGeometry>
        </mxCell>
        <mxCell id="9vJBuJwD2FiN41_QSTd1-45" value="Entrega e Manut." style="swimlane;html=1;startSize=20;horizontal=0;" vertex="1" parent="1">
          <mxGeometry x="235" y="585" width="630" height="150" as="geometry" />
        </mxCell>
        <mxCell id="9vJBuJwD2FiN41_QSTd1-137" value="" style="edgeStyle=orthogonalEdgeStyle;rounded=0;orthogonalLoop=1;jettySize=auto;html=1;" edge="1" parent="9vJBuJwD2FiN41_QSTd1-45" source="9vJBuJwD2FiN41_QSTd1-134" target="9vJBuJwD2FiN41_QSTd1-136">
          <mxGeometry relative="1" as="geometry" />
        </mxCell>
        <mxCell id="9vJBuJwD2FiN41_QSTd1-134" value="Treinamento do analista de sistema junto aos funcionarios" style="rounded=0;whiteSpace=wrap;html=1;shadow=0;labelBackgroundColor=none;strokeWidth=1;fontFamily=Verdana;fontSize=8;align=center;" vertex="1" parent="9vJBuJwD2FiN41_QSTd1-45">
          <mxGeometry x="45" y="60.5" width="70" height="43" as="geometry" />
        </mxCell>
        <mxCell id="9vJBuJwD2FiN41_QSTd1-139" value="" style="edgeStyle=orthogonalEdgeStyle;rounded=0;orthogonalLoop=1;jettySize=auto;html=1;" edge="1" parent="9vJBuJwD2FiN41_QSTd1-45" source="9vJBuJwD2FiN41_QSTd1-136" target="9vJBuJwD2FiN41_QSTd1-138">
          <mxGeometry relative="1" as="geometry" />
        </mxCell>
        <mxCell id="9vJBuJwD2FiN41_QSTd1-136" value="Implantação no ambiente de produção" style="rounded=0;whiteSpace=wrap;html=1;shadow=0;labelBackgroundColor=none;strokeWidth=1;fontFamily=Verdana;fontSize=8;align=center;" vertex="1" parent="9vJBuJwD2FiN41_QSTd1-45">
          <mxGeometry x="175" y="60.5" width="70" height="43" as="geometry" />
        </mxCell>
        <mxCell id="9vJBuJwD2FiN41_QSTd1-146" value="" style="edgeStyle=orthogonalEdgeStyle;rounded=0;orthogonalLoop=1;jettySize=auto;html=1;" edge="1" parent="9vJBuJwD2FiN41_QSTd1-45" source="9vJBuJwD2FiN41_QSTd1-138" target="9vJBuJwD2FiN41_QSTd1-145">
          <mxGeometry relative="1" as="geometry">
            <Array as="points">
              <mxPoint x="330" y="30" />
            </Array>
          </mxGeometry>
        </mxCell>
        <mxCell id="9vJBuJwD2FiN41_QSTd1-138" value="&lt;span style=&quot;font-size: 8px;&quot;&gt;Necessário suporte técnico?&lt;/span&gt;" style="rhombus;whiteSpace=wrap;html=1;" vertex="1" parent="9vJBuJwD2FiN41_QSTd1-45">
          <mxGeometry x="295" y="47.25999999999999" width="70" height="69.47" as="geometry" />
        </mxCell>
        <mxCell id="9vJBuJwD2FiN41_QSTd1-145" value="Oferecimento de Suporte técnico" style="rounded=0;whiteSpace=wrap;html=1;shadow=0;labelBackgroundColor=none;strokeWidth=1;fontFamily=Verdana;fontSize=8;align=center;" vertex="1" parent="9vJBuJwD2FiN41_QSTd1-45">
          <mxGeometry x="455" y="10" width="70" height="43" as="geometry" />
        </mxCell>
        <mxCell id="9vJBuJwD2FiN41_QSTd1-149" value="&lt;font style=&quot;font-size: 8px;&quot;&gt;SIM&lt;/font&gt;" style="text;html=1;align=center;verticalAlign=middle;resizable=0;points=[];autosize=1;strokeColor=none;fillColor=none;" vertex="1" parent="9vJBuJwD2FiN41_QSTd1-45">
          <mxGeometry x="325" y="23" width="40" height="30" as="geometry" />
        </mxCell>
        <mxCell id="9vJBuJwD2FiN41_QSTd1-135" value="" style="edgeStyle=orthogonalEdgeStyle;rounded=0;orthogonalLoop=1;jettySize=auto;html=1;exitX=0.5;exitY=1;exitDx=0;exitDy=0;" edge="1" parent="1" source="9vJBuJwD2FiN41_QSTd1-85">
          <mxGeometry relative="1" as="geometry">
            <mxPoint x="310" y="650" as="targetPoint" />
            <Array as="points">
              <mxPoint x="810" y="560" />
              <mxPoint x="310" y="560" />
            </Array>
          </mxGeometry>
        </mxCell>
      </root>
    </mxGraphModel>
  </diagram>
</mxfile>
